<?xml version="1.0" standalone="no"?>
<!DOCTYPE svg PUBLIC "-//W3C//DTD SVG 1.1//EN" "http://www.w3.org/Graphics/SVG/1.1/DTD/svg11.dtd" >
<svg xmlns="http://www.w3.org/2000/svg">
<metadata>Generated by IcoMoon</metadata>
<defs>
<font id="icomoon" horiz-adv-x="1024">
<font-face units-per-em="1024" ascent="960" descent="-64" />
<missing-glyph horiz-adv-x="1024" />
<glyph unicode="&#x20;" horiz-adv-x="512" d="" />
<glyph unicode="&#xe900;" glyph-name="englishextra-ui-icons-alert" d="M480 960l480-960h-960l480 960zM480 817.024l-376.512-753.024h753.024l-376.512 753.024zM448 576h64v-320h-64v320zM448 128v64h64v-64h-64z" />
<glyph unicode="&#xe901;" glyph-name="englishextra-ui-icons-angle-down" d="M12.48 630.976l60.48 60.48 439.040-438.976 439.040 438.976 60.48-60.48-499.52-499.456-499.52 499.456z" />
<glyph unicode="&#xe902;" glyph-name="englishextra-ui-icons-angle-down-circle" d="M64 450.496c0 41.024 5.312 80.384 16 118.272 10.688 37.824 25.664 73.28 44.992 106.24 19.328 33.024 42.624 63.040 69.76 90.24 27.2 27.136 57.28 50.432 90.24 69.76 33.024 19.328 68.416 34.304 106.24 44.992 37.888 10.688 77.248 16 118.272 16s80.448-5.312 118.272-16c37.888-10.688 73.28-25.664 106.24-44.992 33.024-19.328 63.104-42.624 90.24-69.76 27.2-27.2 50.432-57.28 69.76-90.24 19.392-33.024 34.368-68.416 44.992-106.24 10.688-37.824 16-77.248 16-118.272s-5.312-80.448-16-118.272c-10.624-37.888-25.6-73.28-44.992-106.24-19.328-33.024-42.56-63.104-69.76-90.24-27.136-27.2-57.28-50.432-90.24-69.76-33.024-19.392-68.352-34.368-106.24-44.992-37.824-10.688-77.248-16-118.272-16s-80.384 5.312-118.272 16c-37.824 10.624-73.28 25.6-106.24 44.992-33.024 19.328-63.040 42.56-90.24 69.76-27.136 27.136-50.432 57.28-69.76 90.24-19.328 33.024-34.304 68.416-44.992 106.24s-16 77.248-16 118.272zM891.008 450.496c0 35.008-4.544 68.736-13.76 101.248-9.152 32.512-22.016 62.912-38.528 91.264-16.512 28.288-36.288 54.080-59.52 77.248-23.104 23.168-48.896 43.008-77.248 59.52-28.288 16.512-58.752 29.312-91.264 38.528-32.448 9.088-66.176 13.696-101.184 13.696s-68.736-4.608-101.248-13.76c-32.512-9.152-62.848-22.016-91.008-38.464-28.16-16.512-53.888-36.48-77.248-59.776-23.296-23.36-43.264-49.088-59.776-77.248s-29.312-58.496-38.528-91.008c-9.088-32.512-13.696-66.24-13.696-101.248s4.608-68.736 13.76-101.248c9.216-32.512 22.016-62.912 38.528-91.264s36.352-54.144 59.52-77.248c23.168-23.168 48.96-43.008 77.248-59.52 28.352-16.512 58.752-29.376 91.264-38.528 32.512-9.216 66.24-13.76 101.248-13.76s68.736 4.544 101.248 13.76c32.512 9.152 62.912 22.016 91.264 38.528s54.144 36.288 77.248 59.52c23.168 23.104 43.008 48.896 59.52 77.248 16.512 28.288 29.376 58.752 38.528 91.264 9.088 32.512 13.632 66.24 13.632 101.248zM326.528 550.528l185.472-185.024 185.472 185.024 44.992-44.992-230.464-231.040-230.528 230.976 45.056 45.056z" />
<glyph unicode="&#xe903;" glyph-name="englishextra-ui-icons-angle-left" d="M195.52 448l499.52 499.52 60.48-60.48-439.040-439.040 438.976-438.976-60.48-60.48-499.456 499.456z" />
<glyph unicode="&#xe904;" glyph-name="englishextra-ui-icons-angle-left-circle" d="M514.496 896c41.024 0 80.448-5.312 118.272-16s73.28-25.664 106.24-44.992c33.024-19.328 63.040-42.624 90.24-69.76 27.2-27.2 50.432-57.28 69.76-90.24s34.304-68.416 44.992-106.24c10.688-37.888 16-77.248 16-118.272s-5.312-80.448-16-118.272c-10.688-37.888-25.664-73.28-44.992-106.24s-42.56-63.104-69.76-90.24c-27.2-27.2-57.28-50.432-90.24-69.76-33.024-19.392-68.416-34.368-106.24-44.992-37.824-10.688-77.248-16-118.272-16s-80.448 5.312-118.272 16c-37.824 10.624-73.28 25.6-106.24 44.992-33.024 19.328-63.104 42.56-90.24 69.76-27.2 27.136-50.432 57.28-69.76 90.24-19.328 33.024-34.368 68.352-44.992 106.24-10.688 37.824-16 77.248-16 118.272s5.312 80.384 16 118.272c10.688 37.824 25.664 73.28 44.992 106.24 19.328 33.024 42.56 63.040 69.76 90.24 27.136 27.136 57.28 50.432 90.24 69.76 33.024 19.328 68.416 34.304 106.24 44.992s77.248 16 118.272 16zM514.496 68.992c35.008 0 68.736 4.544 101.248 13.76 32.512 9.152 62.912 22.016 91.264 38.528s54.080 36.288 77.248 59.52c23.168 23.104 43.008 48.896 59.52 77.248 16.512 28.288 29.312 58.752 38.528 91.264s13.696 66.176 13.696 101.184-4.544 68.736-13.76 101.248-22.016 62.784-38.528 91.008c-16.512 28.16-36.416 53.888-59.776 77.248-23.296 23.296-49.088 43.264-77.248 59.776s-58.496 29.312-91.008 38.528c-32.448 9.088-66.176 13.696-101.184 13.696s-68.736-4.608-101.248-13.76c-32.512-9.152-62.912-22.016-91.264-38.464-28.352-16.512-54.080-36.352-77.248-59.52s-43.008-48.96-59.52-77.248c-16.448-28.352-29.312-58.752-38.464-91.264-9.216-32.512-13.76-66.24-13.76-101.248s4.544-68.736 13.76-101.248c9.152-32.512 22.016-62.912 38.528-91.264s36.288-54.144 59.52-77.248c23.168-23.168 48.896-43.008 77.248-59.52 28.288-16.512 58.752-29.376 91.264-38.528 32.448-9.152 66.176-13.696 101.184-13.696zM614.528 633.472l-185.024-185.472 185.024-185.472-44.992-44.992-231.040 230.464 230.976 230.528 45.056-45.056z" />
<glyph unicode="&#xe905;" glyph-name="englishextra-ui-icons-angle-right" d="M268.48 9.024l439.040 438.976-439.040 439.040 60.48 60.48 499.52-499.52-499.52-499.52-60.48 60.544z" />
<glyph unicode="&#xe906;" glyph-name="englishextra-ui-icons-angle-right-circle" d="M514.496 896c41.024 0 80.448-5.312 118.272-16s73.28-25.664 106.24-44.992c33.024-19.328 63.040-42.624 90.24-69.76 27.2-27.2 50.432-57.28 69.76-90.24s34.304-68.416 44.992-106.24c10.688-37.888 16-77.248 16-118.272s-5.312-80.448-16-118.272c-10.688-37.888-25.664-73.28-44.992-106.24s-42.56-63.104-69.76-90.24c-27.2-27.2-57.28-50.432-90.24-69.76-33.024-19.392-68.416-34.368-106.24-44.992-37.824-10.688-77.248-16-118.272-16s-80.448 5.312-118.272 16c-37.824 10.624-73.28 25.6-106.24 44.992-33.024 19.328-63.104 42.56-90.24 69.76-27.2 27.136-50.432 57.28-69.76 90.24-19.328 33.024-34.368 68.352-44.992 106.24-10.688 37.824-16 77.248-16 118.272s5.312 80.384 16 118.272c10.688 37.824 25.664 73.28 44.992 106.24 19.328 33.024 42.56 63.040 69.76 90.24 27.136 27.136 57.28 50.432 90.24 69.76 33.024 19.328 68.416 34.304 106.24 44.992s77.248 16 118.272 16zM514.496 832c-35.008 0-68.736-4.608-101.248-13.76s-62.912-22.016-91.264-38.464-54.080-36.352-77.248-59.52c-23.168-23.168-43.008-48.96-59.52-77.248-16.448-28.352-29.312-58.752-38.464-91.264-9.216-32.512-13.76-66.24-13.76-101.248s4.544-68.736 13.76-101.248c9.152-32.512 22.016-62.912 38.528-91.264s36.288-54.144 59.52-77.248c23.168-23.168 48.96-43.008 77.248-59.52s58.752-29.376 91.264-38.528c32.512-9.216 66.24-13.76 101.248-13.76s68.736 4.544 101.248 13.76c32.512 9.152 62.912 22.016 91.264 38.528s54.080 36.288 77.248 59.52c23.168 23.104 43.008 48.896 59.52 77.248 16.512 28.288 29.312 58.752 38.528 91.264s13.632 66.24 13.632 101.248-4.544 68.736-13.76 101.248-22.016 62.784-38.528 91.008c-16.512 28.16-36.416 53.888-59.776 77.248-23.296 23.296-49.088 43.264-77.248 59.776s-58.496 29.312-91.008 38.528c-32.448 9.088-66.176 13.696-101.184 13.696zM470.528 217.472l-44.992 44.992 184.96 185.536-185.024 185.472 44.992 44.992 230.528-230.464-230.464-230.528z" />
<glyph unicode="&#xe907;" glyph-name="englishextra-ui-icons-angle-up" d="M512.064 643.52l-439.040-438.976-60.48 60.48 499.52 499.52 499.52-499.52-60.48-60.48-439.040 438.976z" />
<glyph unicode="&#xe908;" glyph-name="englishextra-ui-icons-angle-up-circle" d="M960.512 445.056c0-41.024-5.312-80.384-16-118.272-10.624-37.824-25.6-73.28-44.992-106.24-19.328-33.024-42.56-63.040-69.76-90.24-27.136-27.136-57.28-50.368-90.24-69.76-33.024-19.328-68.352-34.304-106.24-44.992-37.824-10.624-77.248-16-118.208-16s-80.448 5.376-118.272 16c-37.824 10.688-73.28 25.664-106.24 44.992-33.024 19.392-63.104 42.624-90.24 69.76-27.2 27.2-50.432 57.28-69.76 90.24-19.328 33.024-34.368 68.416-44.992 106.24-10.688 37.888-16 77.248-16 118.272s5.312 80.448 16 118.272c10.688 37.888 25.664 73.28 44.992 106.24 19.328 33.024 42.56 63.104 69.76 90.24 27.136 27.2 57.28 50.432 90.24 69.76 32.96 19.392 68.352 34.368 106.24 44.992 37.824 10.688 77.248 16 118.272 16s80.384-5.312 118.208-16c37.888-10.624 73.28-25.6 106.24-44.992 33.024-19.328 63.104-42.56 90.24-69.76 27.2-27.136 50.432-57.28 69.76-90.24 19.392-33.024 34.368-68.352 44.992-106.24 10.688-37.824 16-77.248 16-118.272zM133.504 445.056c0-35.008 4.544-68.736 13.76-101.248 9.152-32.512 22.016-62.848 38.528-91.264 16.512-28.288 36.288-54.080 59.52-77.248 23.168-23.104 48.896-43.008 77.248-59.52 28.288-16.512 58.752-29.312 91.264-38.528 32.512-9.152 66.24-13.76 101.248-13.76s68.736 4.608 101.248 13.76c32.512 9.216 62.848 22.016 91.008 38.528s53.952 36.416 77.248 59.776c23.36 23.36 43.264 49.152 59.776 77.248 16.512 28.16 29.376 58.496 38.528 91.008 9.216 32.512 13.76 66.24 13.76 101.248s-4.544 68.736-13.76 101.248c-9.152 32.512-22.016 62.912-38.528 91.264s-36.288 54.144-59.52 77.248c-23.104 23.168-48.896 43.008-77.248 59.52-28.416 16.448-58.816 29.376-91.328 38.464-32.512 9.216-66.24 13.76-101.248 13.76s-68.736-4.544-101.248-13.76c-32.448-9.088-62.912-22.016-91.2-38.464-28.352-16.512-54.080-36.288-77.248-59.52-23.232-23.104-43.008-48.896-59.52-77.248-16.512-28.288-29.376-58.752-38.528-91.264s-13.76-66.24-13.76-101.248zM697.984 345.088l-185.472 184.96-185.472-184.96-44.992 44.992 230.528 230.976 230.464-230.976-45.056-44.992z" />
<glyph unicode="&#xe909;" glyph-name="englishextra-ui-icons-camera" d="M1024 832v-768h-1024v768h274.496l64 64h347.008l64-64h274.496zM960 768h-237.504l-64 64h-292.992l-64-64h-237.504v-640h896v640zM160 704c8.64 0 16.128-3.2 22.528-9.472 6.272-6.4 9.472-13.888 9.472-22.528 0-8.704-3.2-16.192-9.472-22.528-6.4-6.336-13.888-9.472-22.528-9.472-8.704 0-16.192 3.136-22.528 9.472s-9.472 13.824-9.472 22.528c0 8.64 3.136 16.128 9.472 22.528 6.336 6.272 13.824 9.472 22.528 9.472zM512 704c35.328 0 68.544-6.656 99.776-20.032 31.168-13.312 58.304-31.616 81.472-54.72 23.168-23.168 41.408-50.368 54.72-81.472 13.376-31.232 20.032-64.512 20.032-99.776 0-35.328-6.656-68.608-20.032-99.712-13.312-31.232-31.552-58.368-54.72-81.472-23.168-23.232-50.304-41.472-81.472-54.72-31.232-13.44-64.448-20.096-99.776-20.096s-68.544 6.656-99.776 20.032c-31.168 13.248-58.368 31.488-81.472 54.72-23.168 23.104-41.408 50.24-54.72 81.472-13.376 31.168-20.032 64.384-20.032 99.776 0 35.328 6.656 68.544 20.032 99.776 13.312 31.168 31.552 58.304 54.72 81.472 23.104 23.168 50.304 41.408 81.472 54.72 31.232 13.312 64.448 20.032 99.776 20.032zM512 256c26.304 0 51.2 4.992 74.496 15.232 23.296 10.112 43.712 23.872 60.992 41.28 17.344 17.28 31.040 37.632 41.28 60.992 10.176 23.296 15.232 48.128 15.232 74.496 0 26.304-5.056 51.136-15.232 74.496-10.176 23.296-23.936 43.648-41.28 60.992-17.28 17.28-37.696 31.040-60.992 41.216s-48.192 15.296-74.496 15.296-51.2-5.12-74.496-15.296c-23.296-10.176-43.712-23.936-60.992-41.216-17.408-17.344-31.168-37.696-41.28-60.992-10.176-23.36-15.232-48.192-15.232-74.496 0-26.368 5.056-51.2 15.232-74.496 10.112-23.36 23.872-43.776 41.28-60.992 17.344-17.344 37.696-31.104 60.992-41.28 23.296-10.24 48.192-15.232 74.496-15.232z" />
<glyph unicode="&#xe90a;" glyph-name="englishextra-ui-icons-close" d="M557.504 448l345.024-345.472-44.992-44.992-345.536 344.96-345.472-345.024-44.992 44.992 344.96 345.536-345.024 345.472 44.992 44.992 345.536-344.96 345.472 345.024 44.992-44.992-344.96-345.536z" />
<glyph unicode="&#xe90b;" glyph-name="englishextra-ui-icons-comment" d="M0 896h1024v-704h-658.496l-237.504-237.504v237.504h-128v704zM960 256v576h-896v-576h128v-146.496l146.496 146.496h621.504z" />
<glyph unicode="&#xe90c;" glyph-name="englishextra-ui-icons-document" d="M557.504 960l338.496-338.56v-685.44h-768v1024h429.504zM192 0h640v576h-320v320h-320v-896zM576 850.496v-210.496h210.496l-210.496 210.496z" />
<glyph unicode="&#xe90d;" glyph-name="englishextra-ui-icons-down-arrow" d="M982.528 409.472l-470.528-470.464-470.528 470.464 44.992 44.992 393.536-393.472v899.008h64v-898.944l393.472 393.472 45.056-45.056z" />
<glyph unicode="&#xe90e;" glyph-name="englishextra-ui-icons-headphones" d="M512 896c35.264 0 69.248-4.608 102.016-13.76 32.64-9.216 63.232-22.080 91.776-38.72 28.48-16.704 54.4-36.672 77.76-60.032 23.232-23.36 43.264-49.28 60.032-77.76 16.64-28.48 29.504-59.072 38.72-91.776 9.088-32.64 13.696-66.624 13.696-101.952v-352c0-13.376-2.496-25.856-7.488-37.504-4.992-11.712-11.904-21.888-20.48-30.528-8.768-8.704-18.88-15.488-30.528-20.48-11.776-4.992-24.256-7.488-37.504-7.488h-96v384h96c11.008 0 21.632-1.856 32-5.504v69.504c0 44.032-8.512 85.376-25.28 124.224-16.896 38.784-39.744 72.768-68.736 101.76s-62.976 51.904-101.76 68.736c-38.848 16.832-80.192 25.28-124.224 25.28s-85.504-8.448-124.224-25.28c-38.848-16.832-72.768-39.744-101.76-68.736s-51.968-62.912-68.736-101.76c-16.896-38.848-25.28-80.256-25.28-124.224v-69.504c10.304 3.648 20.992 5.504 32 5.504h96v-384h-96c-13.312 0-25.856 2.496-37.504 7.488-11.712 4.992-21.824 11.84-30.528 20.48s-15.488 18.816-20.48 30.528c-4.992 11.648-7.488 24.128-7.488 37.504v352c0 35.328 4.544 69.312 13.76 102.016 9.152 32.64 22.080 63.232 38.72 91.776 16.64 28.48 36.672 54.4 60.032 77.76 23.296 23.296 49.28 43.328 77.76 60.032 28.48 16.64 59.008 29.568 91.776 38.72 32.576 9.088 66.56 13.696 101.952 13.696zM224 384c-8.704 0-16.192-3.2-22.528-9.472-6.336-6.4-9.472-13.888-9.472-22.528v-192c0-8.704 3.136-16.192 9.472-22.528s13.824-9.472 22.528-9.472h32v256h-32zM800 128c8.64 0 16.128 3.136 22.528 9.472 6.208 6.336 9.472 13.824 9.472 22.528v192c0 8.64-3.264 16.128-9.472 22.528-6.4 6.272-13.888 9.472-22.528 9.472h-32v-256h32z" />
<glyph unicode="&#xe90f;" glyph-name="englishextra-ui-icons-home" d="M512 877.504l470.528-470.976-44.992-44.992-41.536 40.96v-402.496h-320v320h-128v-320h-320v402.496l-41.472-41.024-44.992 45.056 470.464 470.976zM832 64v402.496l-320 320-320-320v-402.496h192v320h256v-320h192z" />
<glyph unicode="&#xe910;" glyph-name="englishextra-ui-icons-left-arrow" d="M1024 416h-899.008l393.536-393.472-44.992-44.992-470.528 470.464 470.528 470.528 44.992-44.992-393.536-393.536h899.008v-64z" />
<glyph unicode="&#xe911;" glyph-name="englishextra-ui-icons-left-arrow-circle" d="M512-64c-47.296 0-92.736 6.080-136.256 18.24-43.52 12.096-84.224 29.312-122.24 51.52-38.016 22.144-72.576 48.832-103.744 80-31.168 31.104-57.856 65.728-80 103.744-22.208 38.016-39.36 78.784-51.52 122.496-12.16 43.648-18.24 89.024-18.24 136s6.080 92.288 18.24 136c12.16 43.648 29.312 84.48 51.52 122.496 22.144 38.016 48.832 72.576 80 103.744s65.728 57.792 103.744 80c38.016 22.144 78.784 39.296 122.496 51.52 43.712 12.16 89.024 18.24 136 18.24s92.288-6.080 136-18.24c43.712-12.16 84.48-29.312 122.496-51.52s72.576-48.832 103.744-80c31.168-31.168 57.792-65.728 80-103.744s39.296-78.848 51.52-122.496c12.16-43.712 18.24-89.024 18.24-136 0-47.36-6.080-92.736-18.24-136.256s-29.312-84.224-51.52-122.24-48.832-72.64-80-103.744c-31.168-31.168-65.728-57.856-103.744-80-38.016-22.208-78.784-39.36-122.496-51.52s-89.024-18.24-136-18.24zM512 896c-41.024 0-80.576-5.312-118.72-16-38.208-10.688-73.856-25.728-107.008-45.248s-63.488-42.944-90.752-70.272c-27.328-27.328-50.752-57.6-70.272-90.752s-34.56-68.8-45.248-107.008c-10.688-38.144-16-77.696-16-118.72s5.312-80.64 16-118.72c10.688-38.208 25.728-73.856 45.248-107.008 19.52-33.216 42.944-63.424 70.272-90.752 27.328-27.392 57.536-50.752 90.752-70.272s68.8-34.624 107.008-45.248c38.144-10.688 77.696-16 118.72-16s80.576 5.312 118.72 16c38.208 10.624 73.792 25.728 107.008 45.248s63.424 42.88 90.752 70.272c27.328 27.328 50.752 57.536 70.272 90.752 19.52 33.152 34.56 68.8 45.248 107.008 10.688 38.080 16 77.696 16 118.72s-5.312 80.576-16 118.72c-10.688 38.144-25.728 73.792-45.248 107.008-19.52 33.152-42.944 63.424-70.272 90.752s-57.536 50.752-90.752 70.272-68.8 34.56-107.008 45.248c-38.144 10.688-77.696 16-118.72 16zM832.512 416h-518.976l201.472-201.472-44.992-44.992-278.464 278.464 278.528 278.528 44.992-44.992-201.536-201.536h518.976v-64z" />
<glyph unicode="&#xe912;" glyph-name="englishextra-ui-icons-list" d="M0 768v192h192v-192h-192zM0 512v192h192v-192h-192zM0 256v192h192v-192h-192zM0 0v192h192v-192h-192zM64 896v-64h64v64h-64zM64 640v-64h64v64h-64zM64 384v-64h64v64h-64zM64 128v-64h64v64h-64zM320 896h704v-64h-704v64zM320 576v64h576v-64h-576zM768 384v-64h-448v64h448zM320 64v64h576v-64h-576z" />
<glyph unicode="&#xe913;" glyph-name="englishextra-ui-icons-mail" d="M0 768h1024v-640h-1024v640zM64 192h896v444.032l-448-223.488-448 223.488v-444.032zM952.512 704h-881.024l440.512-220.48 440.512 220.48z" />
<glyph unicode="&#xe914;" glyph-name="englishextra-ui-icons-menu" d="M0 640v64h1024v-64h-1024zM0 384v64h1024v-64h-1024zM0 128v64h1024v-64h-1024z" />
<glyph unicode="&#xe915;" glyph-name="englishextra-ui-icons-more" d="M128 512c9.024 0 17.344-1.664 25.024-4.992s14.4-7.936 20.224-13.76c5.824-5.888 10.432-12.608 13.76-20.288s4.992-16 4.992-24.96-1.664-17.344-4.992-25.024c-3.328-7.68-7.936-14.464-13.76-20.288s-12.608-10.432-20.224-13.696c-7.68-3.392-16-4.992-25.024-4.992s-17.344 1.6-25.024 4.992c-7.68 3.328-14.464 7.936-20.224 13.76-5.824 5.76-10.432 12.544-13.76 20.224s-4.992 16-4.992 25.024 1.664 17.28 4.992 24.96c3.328 7.68 7.936 14.4 13.76 20.288 5.824 5.824 12.544 10.432 20.224 13.76 7.68 3.264 16 4.992 25.024 4.992zM512 512c9.024 0 17.28-1.664 25.024-4.992 7.616-3.392 14.4-8 20.288-13.76 5.696-5.888 10.368-12.608 13.696-20.288 3.264-7.68 4.992-16 4.992-24.96s-1.728-17.344-4.992-25.024c-3.328-7.68-8-14.464-13.696-20.288-5.888-5.824-12.672-10.432-20.288-13.696-7.744-3.392-16-4.992-25.024-4.992s-17.344 1.6-24.96 4.992c-7.744 3.264-14.528 7.872-20.288 13.696-5.824 5.824-10.496 12.608-13.696 20.288-3.392 7.68-5.056 16-5.056 25.024s1.664 17.28 5.056 24.96c3.264 7.68 7.872 14.4 13.76 20.224 5.76 5.824 12.48 10.432 20.224 13.76 7.616 3.328 16 5.056 24.96 5.056zM896 512c9.024 0 17.28-1.664 25.024-4.992 7.616-3.328 14.4-7.936 20.224-13.76 5.76-5.824 10.368-12.608 13.76-20.224 3.264-7.744 4.992-16.064 4.992-25.024s-1.728-17.344-4.992-25.024c-3.392-7.68-8-14.464-13.76-20.224-5.888-5.824-12.608-10.432-20.224-13.76-7.744-3.392-16-4.992-25.024-4.992s-17.344 1.6-25.024 4.992c-7.744 3.328-14.528 7.936-20.224 13.76-5.888 5.824-10.496 12.544-13.76 20.224-3.392 7.68-4.992 16-4.992 25.024s1.6 17.344 4.992 25.024c3.264 7.68 7.872 14.4 13.76 20.224 5.76 5.824 12.48 10.432 20.224 13.76 7.68 3.264 16 4.992 25.024 4.992z" />
<glyph unicode="&#xe916;" glyph-name="englishextra-ui-icons-movie" d="M1024 707.968v-520l-256 128v-123.968h-768v512h768v-124.032l256 128zM704 256v384h-640v-384h640zM960 291.52v312.96l-192-96.512v-120l192-96.448z" />
<glyph unicode="&#xe917;" glyph-name="englishextra-ui-icons-phone" d="M803.52 353.472c14.656 0 28.736-2.752 42.24-8.256s25.408-13.44 35.776-23.744l110.016-110.016c10.304-10.368 18.24-22.272 23.744-35.776s8.256-27.648 8.256-42.24c0-14.656-2.752-28.736-8.256-42.24s-13.44-25.408-23.744-35.776c-19.008-19.392-36.288-36.416-52.032-51.264-15.68-14.848-31.808-27.392-48.512-37.504-16.704-10.176-35.2-17.856-55.488-22.976-20.352-5.12-44.864-7.68-73.536-7.68-41.664 0-84.48 6.528-128.512 19.52s-87.744 30.976-131.264 54.016-86.208 50.304-128 81.984c-41.856 31.616-81.344 66.24-118.528 103.744s-71.424 77.12-102.72 118.976c-31.36 41.792-58.368 84.48-81.024 128s-40.32 86.912-52.992 130.24c-12.608 43.328-18.944 85.312-18.944 126.016 0 28.672 2.56 53.056 7.744 73.28 5.184 20.16 12.8 38.656 22.976 55.488s22.656 33.024 37.504 48.512c14.784 15.488 31.936 32.768 51.264 51.776 10.304 10.304 22.144 18.304 35.52 24 13.312 5.632 27.52 8.448 42.496 8.448 14.656 0 28.736-2.816 42.24-8.512s25.408-13.696 35.776-24l110.016-110.016c10.304-10.368 18.24-22.272 23.744-35.776s8.256-27.584 8.256-42.24c0-14.656-2.496-27.776-7.488-39.232s-11.264-21.888-18.56-31.232c-7.296-9.344-15.424-17.856-24.256-25.472-8.832-7.68-16.896-15.232-24.256-22.528-7.296-7.36-13.504-14.72-18.496-22.272s-7.488-15.552-7.488-24.192c0-12.672 4.48-23.488 13.504-32.512l275.52-275.52c9.024-9.024 19.84-13.504 32.512-13.504 8.704 0 16.768 2.496 24.256 7.488s14.912 11.136 22.272 18.496c7.296 7.296 14.784 15.36 22.528 24.256 7.68 8.832 16.192 16.896 25.472 24.256 9.344 7.296 19.776 13.504 31.232 18.496s24.512 7.488 39.232 7.488zM761.984 0c24 0 44.032 2.24 60.224 6.72s30.72 11.008 43.776 19.52 25.664 19.072 38.016 31.744c12.288 12.608 26.496 27.008 42.496 43.008 9.024 9.024 13.504 19.84 13.504 32.512 0 6.016-2.432 13.056-7.232 21.248-4.8 8.128-11.072 16.768-18.752 25.728s-16.256 18.24-25.728 27.776-18.816 18.496-28.032 27.008-17.664 16.32-25.472 23.488c-7.808 7.104-13.952 12.864-18.24 17.28-9.024 9.024-20.032 13.504-33.024 13.504-8.704 0-16.704-2.496-24-7.488s-14.656-11.2-22.016-18.496c-7.296-7.36-14.912-15.424-22.72-24.256-7.808-8.896-16.448-16.96-25.728-24.256-9.344-7.36-19.776-13.504-31.232-18.496s-24.576-7.488-39.232-7.488-28.736 2.752-42.24 8.256-25.408 13.376-35.776 23.744l-275.584 275.456c-10.304 10.304-18.24 22.208-23.744 35.712s-8.256 27.584-8.256 42.24c0 14.656 2.496 27.776 7.488 39.232s11.136 21.888 18.496 31.232c7.36 9.408 15.424 17.984 24.256 25.792s16.896 15.424 24.256 22.72c7.296 7.36 13.504 14.72 18.496 22.080 4.992 7.296 7.488 15.296 7.488 24 0 12.992-4.48 24-13.504 33.024-4.352 4.288-10.112 10.432-17.28 18.24-7.104 7.808-14.912 16.256-23.424 25.472-8.512 9.152-17.536 18.496-27.008 27.968s-18.752 18.112-27.776 25.792c-8.96 7.616-17.6 13.888-25.728 18.752-8.192 4.8-15.232 7.232-21.248 7.232-12.672 0-23.488-4.48-32.512-13.504-16-16-30.272-30.208-42.752-42.496-12.48-12.352-23.168-25.024-32-38.016s-15.488-27.584-19.968-43.712c-4.48-16.192-6.72-36.096-6.72-59.776 0-37.312 6.080-75.84 18.24-115.52s28.992-79.36 50.496-118.976c21.504-39.68 46.912-78.72 76.224-117.248s61.312-74.944 96-109.248c34.688-34.368 71.232-65.984 109.76-94.976s77.504-54.144 116.992-75.264c39.488-21.184 78.784-37.696 118.016-49.472 39.168-11.904 76.736-17.792 112.704-17.792z" />
<glyph unicode="&#xe918;" glyph-name="englishextra-ui-icons-pin" d="M995.008 585.984c-11.008-11.008-21.76-21.12-32.256-30.272s-21.312-16.896-32.512-23.232c-11.2-6.336-23.296-11.264-36.48-14.72s-28.032-5.248-44.736-5.248c-11.328 0-22.208 1.024-32.512 3.008l-189.504-189.504c4.288-12.672 7.488-25.664 9.472-38.976 1.984-13.376 3.008-26.688 3.008-40 0-21.696-2.176-41.344-6.528-59.008-4.288-17.664-10.56-34.368-18.752-49.984-8.192-15.68-18.048-30.656-29.76-44.736-11.712-14.208-24.832-28.608-39.488-43.264l-192.96 192.96-284.032-284.48-67.968-22.528 22.528 68.032 284.48 283.968-193.024 193.024 22.528 22.528c23.296 23.232 50.048 41.088 80.256 53.44 30.144 12.288 61.76 18.496 94.72 18.496 27.328 0 53.504-4.16 78.528-12.48l189.504 189.504c-2.048 10.304-3.008 21.12-3.008 32.512 0 16.32 1.728 31.040 5.248 44.224s8.448 25.408 14.72 36.736c6.336 11.328 14.080 22.272 23.232 32.768s19.264 21.248 30.272 32.256l345.024-345.024zM849.024 576.512c18.304 0 35.712 4.288 52.032 12.992l-247.488 247.488c-8.704-16.32-12.992-33.664-12.992-52.032 0-9.344 1.088-18.112 3.264-26.24 2.176-8.192 4.544-16.576 7.232-25.28l-246.080-245.44c-8.32 3.328-16.192 6.528-23.488 9.472s-14.72 5.504-22.016 7.552-14.912 3.52-22.72 4.736c-7.872 1.152-16.256 1.728-25.28 1.728-19.008 0-37.44-2.752-55.232-8.256-17.856-5.504-34.432-13.568-49.728-24.256l336.512-336.512c10.688 15.296 18.816 31.872 24.512 49.728 5.632 17.856 8.448 36.096 8.448 54.784 0 9.024-0.576 17.408-1.728 25.28-1.216 7.808-2.816 15.488-4.992 22.976s-4.736 14.848-7.744 22.272c-3.008 7.296-6.208 15.104-9.536 23.488l245.504 246.016c8.704-2.688 17.088-5.12 25.28-7.232 8.128-2.24 16.896-3.264 26.24-3.264z" />
<glyph unicode="&#xe919;" glyph-name="englishextra-ui-icons-quote" d="M594.24 699.52v-172.032h-164.48v172.032c0 17.344 1.152 35.008 3.52 52.992 2.304 18.048 6.016 35.456 11.2 52.288s11.904 32.64 20.224 47.488c8.32 14.784 18.496 27.84 30.528 38.976s26.048 19.904 42.24 26.24c16.192 6.336 34.752 9.536 55.808 9.536v-78.016c-12.352 0-22.976-2.432-32-7.232-9.024-4.864-16.768-11.2-23.296-19.008-6.464-7.872-11.712-16.96-15.744-27.264-4.032-10.368-7.232-20.992-9.728-32s-4.224-22.080-4.992-33.216c-0.832-11.2-1.28-21.44-1.28-30.784h88z" />
<glyph unicode="&#xe91a;" glyph-name="englishextra-ui-icons-right-arrow" d="M1020.992 448l-470.528-470.528-44.992 44.992 393.536 393.536h-899.008v64h899.008l-393.536 393.472 44.992 44.992 470.528-470.464z" />
<glyph unicode="&#xe91b;" glyph-name="englishextra-ui-icons-search-left" d="M1024-28.992c0-9.344-2.816-17.472-8.512-24.512s-13.504-10.496-23.488-10.496c-8.704 0-16.192 3.136-22.528 9.472l-392.448 392c-32-26.368-67.136-46.528-105.28-60.48-38.208-14.016-78.080-20.992-119.744-20.992-32.32 0-63.488 4.096-93.504 12.48-30.016 8.32-57.984 20.096-84.032 35.52-25.984 15.296-49.728 33.728-71.232 55.232s-39.936 45.248-55.232 71.296c-15.36 25.984-27.2 53.952-35.52 83.968s-12.48 61.184-12.48 93.504c0 32.32 4.16 63.488 12.48 93.504s20.16 57.984 35.52 83.968c15.296 26.048 33.728 49.792 55.232 71.296s45.248 39.872 71.296 55.232c25.984 15.296 53.952 27.136 83.968 35.52 30.016 8.32 61.184 12.48 93.504 12.48s63.488-4.16 93.504-12.48c30.016-8.384 57.984-20.224 83.968-35.52 26.048-15.36 49.792-33.728 71.296-55.232s39.936-45.248 55.232-71.232 27.2-54.016 35.52-84.032 12.48-61.184 12.48-93.504c0-41.664-6.976-81.6-20.992-119.744-14.016-38.208-34.176-73.28-60.48-105.28 4.992-4.992 14.592-14.528 28.736-28.48s31.168-30.656 51.008-49.984c19.84-19.392 41.472-40.64 65.024-63.744 23.488-23.168 47.168-46.656 70.976-70.528s46.912-47.104 69.248-69.76c22.336-22.656 42.176-43.2 59.52-61.504 17.344-18.368 31.168-33.6 41.472-45.76s15.488-19.584 15.488-22.208zM352 320c39.68 0 76.992 7.552 112 22.72s65.472 35.776 91.52 61.76 46.592 56.512 61.76 91.52 22.72 72.32 22.72 112c0 39.68-7.552 76.992-22.72 112s-35.776 65.472-61.76 91.52-56.512 46.528-91.52 61.76c-35.008 15.104-72.32 22.72-112 22.72s-76.992-7.616-112-22.72c-35.008-15.232-65.472-35.776-91.52-61.76s-46.592-56.512-61.76-91.52c-15.168-35.008-22.72-72.32-22.72-112s7.552-76.992 22.72-112c15.168-35.008 35.776-65.472 61.76-91.52s56.512-46.656 91.52-61.76c35.008-15.168 72.32-22.72 112-22.72z" />
<glyph unicode="&#xe91c;" glyph-name="englishextra-ui-icons-search-right" d="M671.936 960c32.384 0 63.488-4.16 93.504-12.48s57.984-20.16 84.032-35.52c25.984-15.36 49.728-33.728 71.232-55.232s40-45.248 55.232-71.232c15.36-25.984 27.264-54.016 35.52-84.032 8.384-30.016 12.48-61.184 12.48-93.504s-4.096-63.488-12.48-93.504c-8.256-30.016-20.096-57.984-35.52-84.032-15.232-25.984-33.728-49.792-55.232-71.296s-45.248-39.872-71.232-55.232c-25.984-15.296-54.016-27.136-84.032-35.52-30.016-8.256-61.12-12.416-93.504-12.416-41.6 0-81.472 6.976-119.744 20.992-38.144 14.016-73.28 34.176-105.28 60.48l-392.448-392c-6.336-6.272-13.824-9.472-22.464-9.472-8.704 0-16.192 3.2-22.528 9.472-6.336 6.4-9.472 13.888-9.472 22.528 0 8.704 3.136 16.192 9.472 22.528l392 392.512c-26.304 32-46.464 67.072-60.48 105.28-14.016 38.144-20.992 78.016-20.992 119.68 0 32.32 4.16 63.488 12.48 93.504s20.16 58.048 35.52 84.032c15.296 25.984 33.664 49.728 55.168 71.232s45.248 39.936 71.296 55.232c25.984 15.36 53.952 27.2 83.968 35.52s61.248 12.48 93.504 12.48zM671.936 320c39.744 0 76.992 7.616 112 22.72 35.008 15.168 65.472 35.776 91.52 61.76 25.984 25.984 46.656 56.512 61.76 91.52 15.232 35.008 22.72 72.32 22.72 112s-7.488 76.992-22.72 112c-15.104 35.008-35.776 65.472-61.76 91.52s-56.512 46.592-91.52 61.76c-35.008 15.168-72.256 22.72-112 22.72-39.616 0-76.992-7.552-112-22.72s-65.472-35.776-91.52-61.76-46.528-56.512-61.76-91.52c-15.104-34.944-22.656-72.32-22.656-112s7.552-76.992 22.72-112c15.168-35.008 35.776-65.472 61.76-91.52s56.512-46.592 91.52-61.76c34.944-15.104 72.32-22.72 111.936-22.72z" />
<glyph unicode="&#xe91d;" glyph-name="englishextra-ui-icons-share" d="M950.528 294.528c11.328-7.36 21.568-16 30.72-25.728 9.216-9.856 16.96-20.608 23.232-32.256 6.336-11.776 11.2-24 14.528-36.992s4.992-26.304 4.992-39.552c0-22.016-4.224-42.752-12.736-62.016-8.512-19.392-20.032-36.224-34.496-50.752s-31.424-25.984-50.752-34.496-40-12.736-62.016-12.736c-30.656 0-59.008 8.128-84.992 24.512-38.336-28.992-80.448-51.008-126.272-65.984s-92.736-22.528-140.736-22.528-94.912 7.488-140.736 22.528c-45.824 14.976-87.936 36.992-126.272 65.984-25.984-16.384-54.336-24.512-84.992-24.512-22.016 0-42.688 4.224-62.016 12.736s-36.224 20.032-50.752 34.496-25.984 31.36-34.496 50.752c-8.512 19.264-12.736 40-12.736 62.016 0 13.248 1.664 26.496 4.992 39.488s8.128 25.28 14.528 36.992c6.336 11.648 14.080 22.4 23.232 32.256 9.152 9.728 19.392 18.368 30.72 25.728-3.328 14.976-5.76 29.888-7.232 44.736-1.472 14.784-2.24 29.824-2.24 44.8 0 45.952 6.912 90.56 20.736 133.696 13.824 43.2 33.344 83.2 58.496 120 25.152 36.864 55.424 69.44 90.752 97.792 35.328 28.288 74.688 50.624 118.016 67.008 0.32 21.632 4.736 42.048 13.248 61.248 8.512 19.136 20.032 35.776 34.496 49.984 14.528 14.144 31.424 25.408 50.752 33.728s39.808 12.544 61.504 12.544 42.176-4.16 61.504-12.48c19.328-8.32 36.224-19.584 50.752-33.728 14.528-14.208 25.984-30.848 34.496-49.984 8.512-19.2 12.928-39.616 13.248-61.248 43.328-16.32 82.688-38.656 118.016-67.008s65.536-60.928 90.752-97.728c25.216-36.864 44.672-76.864 58.496-120 13.824-43.264 20.736-87.872 20.736-133.824 0-14.976-0.768-30.016-2.24-44.736-1.536-14.912-3.968-29.76-7.232-44.736zM64 160c0-13.376 2.496-25.856 7.488-37.504 4.992-11.776 11.84-21.888 20.48-30.528 8.64-8.768 18.816-15.488 30.528-20.48 11.648-4.992 24.192-7.488 37.504-7.488s25.792 2.496 37.504 7.488c11.648 4.992 21.824 11.776 30.528 20.48 8.64 8.64 15.488 18.752 20.48 30.528 4.992 11.648 7.488 24.128 7.488 37.504 0 13.248-2.496 25.728-7.488 37.504-4.992 11.648-11.84 21.76-20.48 30.528-8.704 8.64-18.816 15.488-30.528 20.48s-24.192 7.488-37.504 7.488c-13.312 0-25.856-2.496-37.504-7.488-11.712-4.992-21.824-11.904-30.528-20.48-8.704-8.768-15.488-18.88-20.48-30.528-4.992-11.776-7.488-24.256-7.488-37.504zM512 0c39.296 0 77.76 5.888 115.264 17.728 37.504 11.776 72.448 28.992 104.768 51.776-9.024 13.248-15.936 27.776-20.736 43.264s-7.296 31.232-7.296 47.232c0 22.016 4.224 42.624 12.736 62.016 8.512 19.264 20.032 36.224 34.496 50.752s31.424 25.984 50.752 34.496 40 12.736 62.016 12.736c4.288 0 8.704-0.256 12.992-0.512 4.288-0.384 8.704-0.896 12.992-1.472 4.032 21.952 6.016 43.968 6.016 65.984 0 38.976-5.568 76.544-16.768 112.704s-27.008 69.632-47.488 100.48c-20.48 30.784-45.312 58.304-74.496 82.496-29.184 24.128-61.76 43.776-97.728 58.752-6.016-14.656-14.080-28.032-24.256-40.192s-21.76-22.592-34.752-31.232c-12.992-8.704-27.008-15.36-41.984-20.032-15.040-4.672-30.528-6.976-46.528-6.976s-31.488 2.304-46.528 6.976c-14.976 4.672-28.992 11.328-41.984 19.968-12.992 8.704-24.576 19.072-34.752 31.296-10.176 12.16-18.24 25.536-24.256 40.256-35.968-15.040-68.544-34.624-97.728-58.752-29.184-24.192-54.016-51.712-74.496-82.496-20.48-30.848-36.352-64.32-47.488-100.48-11.2-36.224-16.768-73.792-16.768-112.768 0-22.016 1.984-44.032 6.016-65.984 24 4.032 47.232 2.624 69.76-4.032 22.528-6.72 42.304-17.472 59.52-32.256 17.152-14.848 30.912-32.768 41.28-53.76 10.24-20.992 15.424-43.712 15.424-67.968 0-16-2.432-31.744-7.232-47.232-4.864-15.488-11.776-30.016-20.736-43.264 32.32-22.72 67.264-40 104.768-51.776 37.44-11.84 75.904-17.728 115.2-17.728zM512 896c-13.312 0-25.792-2.56-37.504-7.552s-21.824-11.84-30.528-20.48c-8.704-8.704-15.488-18.816-20.48-30.528-4.992-11.648-7.488-24.128-7.488-37.44s2.496-25.856 7.488-37.504c4.992-11.712 11.84-21.824 20.48-30.528 8.704-8.704 18.816-15.488 30.528-20.48s24.192-7.488 37.504-7.488 25.792 2.496 37.504 7.488 21.824 11.84 30.528 20.48c8.704 8.64 15.488 18.816 20.48 30.528 4.992 11.648 7.488 24.128 7.488 37.504 0 13.312-2.496 25.792-7.488 37.504-4.992 11.648-11.84 21.824-20.48 30.528-8.704 8.64-18.816 15.488-30.528 20.48s-24.192 7.488-37.504 7.488zM864 64c13.312 0 25.792 2.496 37.504 7.488s21.824 11.776 30.528 20.48c8.704 8.64 15.488 18.752 20.48 30.528 4.992 11.648 7.488 24.128 7.488 37.504 0 13.248-2.496 25.728-7.488 37.504-4.992 11.648-11.84 21.76-20.48 30.528-8.704 8.64-18.816 15.488-30.528 20.48s-24.192 7.488-37.504 7.488-25.792-2.496-37.504-7.488-21.824-11.904-30.528-20.48c-8.704-8.768-15.488-18.88-20.48-30.528-4.992-11.776-7.488-24.256-7.488-37.504 0-13.376 2.496-25.856 7.488-37.504 4.992-11.776 11.84-21.888 20.48-30.528 8.704-8.768 18.816-15.488 30.528-20.48s24.192-7.488 37.504-7.488z" />
<glyph unicode="&#xe91e;" glyph-name="englishextra-ui-icons-smile" d="M512 960c46.976 0 92.416-6.080 136-18.24 43.776-12.16 84.48-29.312 122.496-51.52s72.64-48.832 103.744-80c31.232-31.168 57.856-65.728 80-103.744 22.272-38.016 39.36-78.848 51.52-122.496 12.224-43.648 18.24-88.96 18.24-136s-6.016-92.352-18.24-136c-12.096-43.648-29.248-84.48-51.52-122.496-22.144-38.016-48.768-72.576-80-103.744-31.104-31.104-65.728-57.792-103.744-80-38.016-22.144-78.72-39.296-122.496-51.52-43.648-12.096-89.024-18.24-136-18.24s-92.224 6.144-136 18.24c-43.648 12.16-84.48 29.376-122.496 51.52-38.016 22.208-72.576 48.896-103.744 80-31.168 31.168-57.856 65.728-80 103.744-22.208 38.016-39.36 78.72-51.52 122.24s-18.24 88.96-18.24 136.256c0 46.976 6.080 92.288 18.24 136 12.16 43.648 29.312 84.48 51.52 122.496 22.144 38.016 48.832 72.576 80 103.744s65.728 57.792 103.744 80c38.016 22.144 78.72 39.296 122.24 51.52 43.456 12.16 88.96 18.24 136.256 18.24zM512 0c41.024 0 80.64 5.376 118.784 16 38.272 10.688 73.856 25.728 107.008 45.248 33.28 19.52 63.488 42.944 90.752 70.272 27.392 27.392 50.752 57.6 70.272 90.752 19.52 33.216 34.624 68.736 45.248 106.752 10.688 37.952 15.936 77.632 15.936 118.976 0 41.024-5.248 80.576-16 118.72-10.624 38.144-25.728 73.792-45.248 107.008-19.52 33.152-42.88 63.424-70.272 90.752-27.264 27.328-57.472 50.752-90.752 70.272-33.152 19.52-68.736 34.56-107.008 45.248-38.080 10.688-77.76 16-118.72 16s-80.512-5.312-118.784-16c-38.144-10.688-73.792-25.728-106.944-45.248-33.216-19.456-63.488-42.88-90.752-70.208-27.328-27.328-50.752-57.6-70.272-90.752-19.52-33.216-34.56-68.864-45.248-107.008-10.688-38.208-16-77.76-16-118.784s5.312-80.576 16-118.784c10.688-38.144 25.728-73.792 45.248-107.008 19.52-33.152 42.88-63.36 70.272-90.752 27.328-27.328 57.536-50.752 90.752-70.272 33.152-19.52 68.736-34.56 106.688-45.248 38.016-10.56 77.76-15.936 119.040-15.936zM512 192c24.384 0 48 3.392 70.784 9.984 22.848 6.656 44.096 16.192 63.744 28.48 19.776 12.352 37.504 27.392 53.248 44.992 15.872 17.664 29.248 37.376 40.256 59.008l57.472-28.992c-13.632-27.008-30.528-51.52-50.496-73.472s-42.24-40.64-67.008-56c-24.64-15.296-51.264-27.136-79.744-35.52-28.544-8.32-57.92-12.48-88.256-12.48-30.656 0-60.096 4.16-88.512 12.48-28.224 8.384-54.72 20.16-79.488 35.52-24.64 15.36-46.976 33.984-66.944 56s-36.864 46.528-50.496 73.472l57.472 28.992c11.008-21.632 24.384-41.344 40.192-59.008 15.872-17.6 33.6-32.64 53.248-44.992 19.776-12.288 40.896-21.824 63.488-28.48 22.784-6.592 46.4-9.984 71.040-9.984zM320 512c-9.024 0-17.344 1.664-24.96 4.992-7.744 3.328-14.464 7.936-20.288 13.76s-10.432 12.608-13.76 20.288c-3.328 7.616-4.992 16-4.992 24.96s1.664 17.344 4.992 25.024c3.328 7.68 7.936 14.4 13.76 20.224s12.544 10.432 20.224 13.76c7.68 3.328 16 4.992 25.024 4.992s17.344-1.664 24.96-4.992c7.744-3.328 14.528-7.936 20.288-13.696 5.888-5.824 10.496-12.608 13.76-20.224 3.328-7.744 4.992-16.064 4.992-25.088s-1.664-17.344-5.056-24.96c-3.2-7.68-7.872-14.464-13.696-20.288-5.76-5.824-12.544-10.432-20.288-13.696-7.616-3.392-16-5.056-24.96-5.056zM704 512c-9.024 0-17.28 1.664-25.024 4.992-7.616 3.328-14.4 7.936-20.224 13.76-5.76 5.824-10.368 12.544-13.76 20.224-3.264 7.68-4.992 16.064-4.992 25.024s1.728 17.344 4.992 25.024c3.392 7.68 8 14.4 13.76 20.224 5.888 5.824 12.608 10.432 20.224 13.76 7.744 3.328 16 4.992 25.024 4.992s17.344-1.664 25.024-4.992c7.744-3.328 14.528-7.936 20.224-13.76 5.888-5.824 10.496-12.608 13.76-20.224 3.392-7.68 4.992-16 4.992-25.024s-1.6-17.344-4.992-25.024c-3.264-7.68-7.872-14.464-13.76-20.224-5.76-5.824-12.48-10.432-20.224-13.76-7.68-3.328-16-4.992-25.024-4.992z" />
<glyph unicode="&#xe91f;" glyph-name="englishextra-ui-icons-star" d="M708.032 332.992l123.968-396.992-320 246.016-320-246.016 124.032 396.992-316.032 243.008h392l120 384 120-384h392l-315.968-243.008zM710.528 110.016c-12.672 41.344-25.344 82.368-38.016 123.264-12.672 40.832-25.664 81.856-38.976 123.264 34.304 25.6 68.16 51.52 101.504 77.504s66.944 51.968 100.992 77.952h-251.008l-73.024 233.472-73.024-233.472h-250.944c33.984-25.984 67.648-52.032 100.992-78.016 33.28-25.984 67.136-51.84 101.504-77.504-13.312-41.344-26.368-82.432-38.976-123.264-12.672-40.896-25.344-81.92-38.016-123.264l198.464 153.024 198.528-152.96z" />
<glyph unicode="&#xe920;" glyph-name="englishextra-ui-icons-tick" d="M9.472 393.536l44.992 44.992 265.536-265.024 649.472 649.024 44.992-44.992-694.464-695.040-310.528 311.040z" />
<glyph unicode="&#xe921;" glyph-name="englishextra-ui-icons-tick-circle" d="M480 960c44.288 0 86.912-5.696 127.744-17.024s79.040-27.456 114.752-48.256c35.712-20.864 68.032-45.824 97.28-75.008 29.184-29.184 54.208-61.568 75.008-97.28s36.928-73.92 48.256-114.752c11.264-40.768 16.96-83.328 16.96-127.68s-5.696-86.912-17.024-127.808c-11.328-40.832-27.456-79.040-48.256-114.752-20.8-35.648-45.824-68.032-75.008-97.28-29.184-29.12-61.568-54.144-97.28-75.008-35.712-20.8-73.92-36.864-114.752-48.256-40.768-11.2-83.392-16.896-127.68-16.896s-86.912 5.696-127.744 17.024c-40.832 11.392-79.104 27.456-114.752 48.256-35.712 20.864-68.096 45.888-97.28 75.008-29.184 29.184-54.208 61.632-75.008 97.28-20.864 35.712-36.928 73.92-48.256 114.752-11.328 40.768-16.96 83.392-16.96 127.68s5.632 86.912 17.024 127.744c11.264 40.832 27.392 79.104 48.256 114.816 20.8 35.648 45.824 68.032 75.008 97.28 29.184 29.184 61.568 54.144 97.28 75.008 35.648 20.8 73.92 36.928 114.752 48.256 40.768 11.264 83.392 16.896 127.68 16.896zM480 64c38.016 0 74.752 4.992 110.272 14.976s68.672 24 99.52 41.984 58.944 39.68 84.224 65.024c25.344 25.344 46.976 53.44 65.024 84.224 17.984 30.848 32 63.936 41.984 99.264 9.984 35.392 14.976 72.192 14.976 110.528 0 38.016-4.992 74.752-14.976 110.272s-24 68.672-41.984 99.52c-17.984 30.784-39.68 58.88-65.024 84.224s-53.44 46.976-84.224 65.024-64 32-99.52 41.984-72.256 14.976-110.272 14.976c-38.336 0-75.2-4.992-110.528-14.976s-68.416-24-99.2-41.984c-30.848-17.984-58.944-39.68-84.288-65.024s-46.976-53.44-64.96-84.224c-17.984-30.848-32-64-41.984-99.52s-15.040-72.256-15.040-110.272 4.992-74.752 14.976-110.272c9.984-35.52 24-68.608 41.984-99.52 17.984-30.784 39.68-58.88 65.024-84.224s53.376-46.976 84.224-65.024c30.784-17.984 63.936-32 99.264-41.984s72.192-14.976 110.528-14.976zM697.472 678.528l44.992-44.992-342.528-343.040-182.528 183.040 44.992 44.992 137.6-137.536 297.472 297.536z" />
<glyph unicode="&#xe922;" glyph-name="englishextra-ui-icons-unquote" d="M595.008 927.488v-171.52c0-17.024-1.28-34.496-3.52-52.48-2.368-17.984-6.272-35.456-11.52-52.224-5.312-16.832-12.224-32.768-20.736-47.744s-18.752-28.096-30.72-39.232c-12.032-11.2-26.112-20.032-42.304-26.56-16.192-6.464-34.432-9.728-54.72-9.728v78.528c12.288 0 23.040 2.432 32.256 7.232 9.152 4.8 16.896 11.136 23.232 19.008 6.336 7.808 11.392 16.896 15.232 27.264 3.84 10.304 6.784 20.992 9.024 32 2.176 11.008 3.648 22.080 4.48 33.28 0.832 11.136 1.28 21.376 1.28 30.72h-88v171.52h166.016z" />
<glyph unicode="&#xe923;" glyph-name="englishextra-ui-icons-up-arrow" d="M937.472 441.472l-393.472 393.536v-899.008h-64v899.008l-393.472-393.536-45.056 45.056 470.528 470.464 470.464-470.528-44.992-44.992z" />
<glyph unicode="&#xe924;" glyph-name="favicon-mask-icon" d="M0 960v-1024h1024v1024h-1024zM761.6 268.8c-25.6-25.6-51.2-51.2-89.6-70.4-25.6-12.8-44.8-19.2-70.4-12.8-32 12.8-51.2 38.4-44.8 76.8 6.4 32 19.2 57.6 32 83.2 12.8 32 25.6 64 38.4 96 0 6.4 0 6.4 6.4 12.8 0 0 0 0 0 0-12.8-6.4-19.2-12.8-25.6-19.2-38.4-38.4-70.4-76.8-108.8-108.8-19.2-19.2-38.4-32-57.6-44.8-12.8-6.4-25.6-6.4-38.4-6.4-19.2 6.4-32 25.6-32 51.2s6.4 44.8 19.2 70.4c12.8 32 25.6 64 44.8 96 12.8 32 32 70.4 51.2 108.8 6.4 12.8 6.4 25.6 12.8 38.4 0 0 0 6.4 0 6.4s0 0 0 0c-6.4 0-12.8-6.4-12.8-6.4-19.2-25.6-38.4-51.2-57.6-76.8s-38.4-51.2-57.6-76.8c-6.4-12.8-19.2-19.2-25.6-25.6-25.6-12.8-51.2 0-57.6 25.6-6.4 19.2 0 38.4 6.4 51.2 12.8 25.6 25.6 51.2 44.8 76.8 6.4 12.8 12.8 25.6 6.4 44.8 0 12.8-6.4 19.2-12.8 25.6s-12.8 0-19.2 0c-12.8-12.8-25.6-19.2-32-32-6.4-6.4-12.8-12.8-19.2-6.4s-6.4 12.8-6.4 19.2c12.8 19.2 32 38.4 51.2 44.8 25.6 6.4 44.8 0 57.6-25.6 12.8-12.8 19.2-32 12.8-51.2s-12.8-32-25.6-51.2c-6.4-19.2-19.2-38.4-25.6-57.6-6.4-12.8-6.4-19.2-6.4-25.6 0 0 0-6.4 6.4-6.4 0 0 6.4 0 6.4 0 6.4 12.8 19.2 19.2 25.6 32 25.6 32 44.8 64 64 96 19.2 19.2 32 38.4 44.8 51.2 6.4 6.4 19.2 19.2 32 19.2 19.2 6.4 38.4-12.8 38.4-32 0-12.8 0-32-6.4-44.8-12.8-32-25.6-64-38.4-89.6-19.2-51.2-38.4-96-57.6-140.8-6.4-19.2-12.8-32-19.2-51.2 0-6.4 0-6.4 0-12.8 6.4 6.4 12.8 6.4 19.2 12.8 25.6 19.2 44.8 38.4 64 57.6 32 32 64 70.4 96 102.4 6.4 6.4 19.2 19.2 32 25.6 25.6 12.8 51.2 0 57.6-32 0-12.8 0-25.6 0-38.4-6.4-32-19.2-64-32-96-12.8-25.6-19.2-57.6-32-83.2 0-6.4-6.4-12.8-6.4-25.6 0-6.4 0-6.4 6.4-6.4s12.8 0 19.2 0c19.2 6.4 32 19.2 51.2 32 12.8 12.8 19.2 19.2 32 32 6.4 6.4 12.8 6.4 25.6 0 6.4-6.4 12.8-12.8 19.2-19.2 0 0 0-6.4-6.4-12.8z" />
<glyph unicode="&#xe925;" glyph-name="englishextra-ui-icons-like" d="M928 640c12.8 0 25.6 0 38.4-6.4s19.2-12.8 32-19.2 12.8-19.2 19.2-32 6.4-25.6 6.4-38.4c0-6.4 0-12.8-6.4-25.6s-6.4-32-12.8-44.8-12.8-38.4-19.2-57.6c-6.4-19.2-12.8-44.8-19.2-64s-12.8-44.8-25.6-64c-6.4-19.2-12.8-44.8-19.2-64s-12.8-38.4-19.2-51.2-6.4-32-12.8-44.8c-6.4-12.8-6.4-19.2-12.8-25.6s-12.8-12.8-19.2-19.2c-6.4-6.4-19.2-12.8-25.6-12.8s-19.2-6.4-32-6.4h-800v576c6.4 0 19.2 0 38.4 0s38.4 0 64 0 51.2 0 76.8 0 57.6 0 76.8 0c25.6 0 44.8 0 64 0s25.6 6.4 32 6.4l281.6 281.6c6.4 6.4 19.2 12.8 25.6 19.2s19.2 12.8 32 12.8c12.8 0 19.2 0 32-6.4s19.2-12.8 25.6-19.2c6.4-6.4 12.8-12.8 19.2-25.6 0-6.4 0-19.2 0-25.6 0-19.2 0-38.4-6.4-57.6s-6.4-32-12.8-44.8c-6.4-12.8-6.4-25.6-12.8-32-6.4-12.8-6.4-19.2-12.8-32s-6.4-19.2-12.8-32 0-32-6.4-44.8h224zM64 128h192v448h-192v-448zM800 128c6.4 0 12.8 0 19.2 6.4s12.8 6.4 12.8 19.2c0 6.4 6.4 12.8 6.4 25.6s12.8 32 19.2 51.2 12.8 38.4 19.2 64c6.4 25.6 12.8 44.8 25.6 70.4 6.4 25.6 12.8 44.8 25.6 70.4s12.8 38.4 19.2 57.6 12.8 32 12.8 44.8c0 0 0 6.4 0 6.4 0 6.4 0 19.2-6.4 25.6s-19.2 6.4-25.6 6.4h-288c0 19.2 0 32 0 44.8s0 32 6.4 44.8 6.4 25.6 12.8 44.8 12.8 25.6 19.2 44.8c12.8 19.2 19.2 32 19.2 51.2 6.4 19.2 6.4 38.4 6.4 57.6 0 0 0 6.4 0 12.8s0 6.4 0 12.8c0 0 0 6.4-6.4 6.4s-6.4 0-6.4 0-6.4 0-6.4 0 0 0-6.4-6.4l-288-288c-6.4-6.4-19.2-12.8-32-19.2s-25.6-6.4-38.4-6.4v-448h480z" />
</font>
</defs>
</svg>
